<svg width="192" height="192" viewBox="0 0 192 192" fill="none" xmlns="http://www.w3.org/2000/svg">
<path fill-rule="evenodd" clip-rule="evenodd" d="M127.042 192L127.042 110.211C111.875 110.211 96.9762 116.869 96.9762 138.091C74.8499 138.091 64.9581 157.023 64.9581 175.814V192L127.042 192ZM85.7829 169.141C85.7829 168.047 86.6703 167.159 87.7649 167.159L121.546 167.159C122.64 167.159 123.528 168.047 123.528 169.141C123.528 170.236 122.64 171.123 121.546 171.123L87.7649 171.123C86.6703 171.123 85.7829 170.236 85.7829 169.141ZM123.528 181.892C123.528 180.177 122.138 178.787 120.423 178.787H82.5104C80.7955 178.787 79.4053 180.177 79.4053 181.892C79.4053 183.607 80.7955 184.997 82.5104 184.997H120.423C122.138 184.997 123.528 183.607 123.528 181.892ZM96.0651 155.268C96.0651 154.173 96.9525 153.286 98.0471 153.286L121.546 153.286C122.64 153.286 123.528 154.173 123.528 155.268C123.528 156.362 122.64 157.25 121.546 157.25L98.0471 157.25C96.9525 157.25 96.0651 156.362 96.0651 155.268ZM123.528 141.394C123.528 140.3 122.64 139.412 121.546 139.412L104.945 139.412C103.851 139.412 102.963 140.3 102.963 141.394C102.963 142.489 103.851 143.376 104.945 143.376L121.546 143.376C122.64 143.376 123.528 142.489 123.528 141.394Z" fill="#FF3300"/>
<path d="M123.528 169.141C123.528 168.047 122.64 167.159 121.546 167.159L87.7649 167.159C86.6703 167.159 85.7829 168.047 85.7829 169.141C85.7829 170.236 86.6703 171.123 87.7649 171.123L121.546 171.123C122.64 171.123 123.528 170.236 123.528 169.141Z" fill="url(#paint0_linear_29_141)"/>
<path d="M123.528 155.268C123.528 154.173 122.64 153.286 121.546 153.286L98.0471 153.286C96.9525 153.286 96.0651 154.173 96.0651 155.268C96.0651 156.362 96.9525 157.25 98.0471 157.25L121.546 157.25C122.64 157.25 123.528 156.362 123.528 155.268Z" fill="url(#paint1_linear_29_141)"/>
<path d="M102.963 141.394C102.963 140.3 103.851 139.412 104.945 139.412L121.546 139.412C122.64 139.412 123.528 140.3 123.528 141.394C123.528 142.489 122.64 143.376 121.546 143.376L104.945 143.376C103.851 143.376 102.963 142.489 102.963 141.394Z" fill="url(#paint2_linear_29_141)"/>
<path d="M79.4053 181.892C79.4053 180.177 80.7955 178.787 82.5104 178.787H120.423C122.138 178.787 123.528 180.177 123.528 181.892C123.528 183.607 122.138 184.997 120.423 184.997H82.5104C80.7955 184.997 79.4053 183.607 79.4053 181.892Z" fill="url(#paint3_linear_29_141)"/>
<path d="M102.553 114.874C89.3051 120.799 78.5834 131.594 72.5158 145.068C77.1044 138.301 83.8885 133.704 93.9881 133.704C93.9881 124.473 97.5197 118.592 102.553 114.874Z" fill="#FF3300"/>
<path fill-rule="evenodd" clip-rule="evenodd" d="M192 64.9668H110.946C110.946 80.2714 117.544 95.305 138.575 95.305C138.575 117.632 157.338 127.613 175.959 127.613H192V64.9668ZM169.347 106.6C168.262 106.6 167.383 105.72 167.383 104.636V70.4769C167.383 69.3922 168.262 68.5128 169.347 68.5128C170.432 68.5128 171.311 69.3922 171.311 70.4769V104.636C171.311 105.72 170.432 106.6 169.347 106.6ZM181.983 68.5128C180.283 68.5128 178.906 69.8905 178.906 71.59V109.958C178.906 111.657 180.283 113.035 181.983 113.035C183.682 113.035 185.06 111.657 185.06 109.958V71.59C185.06 69.8905 183.682 68.5128 181.983 68.5128ZM155.598 96.2243C154.513 96.2243 153.634 95.345 153.634 94.2602V70.4769C153.634 69.3922 154.513 68.5128 155.598 68.5128C156.682 68.5128 157.562 69.3922 157.562 70.4769V94.2602C157.562 95.345 156.682 96.2243 155.598 96.2243ZM141.849 68.5128C140.764 68.5128 139.885 69.3922 139.885 70.4769V87.2995C139.885 88.3842 140.764 89.2636 141.849 89.2636C142.933 89.2636 143.813 88.3843 143.813 87.2995V70.4769C143.813 69.3922 142.933 68.5128 141.849 68.5128Z" fill="#FF3300"/>
<path fill-rule="evenodd" clip-rule="evenodd" d="M115.567 89.6772C121.438 103.046 132.137 113.865 145.49 119.987C138.784 115.357 134.227 108.511 134.227 98.3202C125.079 98.3202 119.251 94.7566 115.567 89.6772Z" fill="#DA0606"/>
<path d="M115.567 89.6772C121.438 103.046 132.137 113.865 145.49 119.987C138.784 115.357 134.227 108.511 134.227 98.3202C125.079 98.3202 119.251 94.7566 115.567 89.6772Z" fill="#FF3300"/>
<path d="M169.347 68.5128C168.262 68.5128 167.383 69.3922 167.383 70.4769V104.636C167.383 105.72 168.262 106.6 169.347 106.6C170.432 106.6 171.311 105.72 171.311 104.636V70.4769C171.311 69.3922 170.432 68.5128 169.347 68.5128Z" fill="url(#paint4_linear_29_141)"/>
<path d="M155.598 68.5128C154.513 68.5128 153.634 69.3922 153.634 70.4769V94.2602C153.634 95.345 154.513 96.2243 155.598 96.2243C156.682 96.2243 157.562 95.345 157.562 94.2602V70.4769C157.562 69.3922 156.682 68.5128 155.598 68.5128Z" fill="url(#paint5_linear_29_141)"/>
<path d="M141.849 89.2636C140.764 89.2636 139.885 88.3842 139.885 87.2995V70.4769C139.885 69.3922 140.764 68.5128 141.849 68.5128C142.933 68.5128 143.813 69.3922 143.813 70.4769V87.2995C143.813 88.3843 142.933 89.2636 141.849 89.2636Z" fill="url(#paint6_linear_29_141)"/>
<path d="M181.983 113.035C180.283 113.035 178.906 111.657 178.906 109.958V71.59C178.906 69.8905 180.283 68.5128 181.983 68.5128C183.682 68.5128 185.06 69.8905 185.06 71.59V109.958C185.06 111.657 183.682 113.035 181.983 113.035Z" fill="url(#paint7_linear_29_141)"/>
<path fill-rule="evenodd" clip-rule="evenodd" d="M64.9582 5.34058e-05V81.7886C80.1254 81.7886 95.0239 75.1313 95.0239 53.9091C117.15 53.9091 127.042 34.9766 127.042 16.186V5.34058e-05H64.9582ZM106.217 22.8586C106.217 23.9532 105.33 24.8405 104.235 24.8405H70.4543C69.3597 24.8405 68.4723 23.9532 68.4723 22.8586C68.4723 21.764 69.3597 20.8766 70.4543 20.8766H104.235C105.33 20.8766 106.217 21.764 106.217 22.8586ZM68.4723 10.108C68.4723 11.8229 69.8625 13.2131 71.5774 13.2131H109.49C111.205 13.2131 112.595 11.8229 112.595 10.108C112.595 8.39313 111.205 7.00294 109.49 7.00294H71.5774C69.8625 7.00294 68.4723 8.39313 68.4723 10.108ZM95.935 36.7322C95.935 37.8268 95.0476 38.7142 93.953 38.7142H70.4543C69.3597 38.7142 68.4723 37.8268 68.4723 36.7322C68.4723 35.6376 69.3597 34.7503 70.4543 34.7503H93.953C95.0476 34.7503 95.935 35.6376 95.935 36.7322ZM68.4723 50.6059C68.4723 51.7005 69.3597 52.5878 70.4543 52.5878H87.0548C88.1494 52.5878 89.0368 51.7005 89.0368 50.6059C89.0368 49.5113 88.1494 48.6239 87.0548 48.6239H70.4543C69.3597 48.6239 68.4723 49.5113 68.4723 50.6059Z" fill="#FF3300"/>
<path fill-rule="evenodd" clip-rule="evenodd" d="M89.4467 77.1258C102.695 71.2011 113.417 60.4056 119.484 46.932C114.896 53.6986 108.112 58.2961 98.0121 58.2961C98.0121 67.5272 94.4804 73.4082 89.4467 77.1258Z" fill="#DA0606"/>
<path d="M89.4467 77.1258C102.695 71.2011 113.417 60.4056 119.484 46.932C114.896 53.6986 108.112 58.2961 98.0121 58.2961C98.0121 67.5272 94.4804 73.4082 89.4467 77.1258Z" fill="#FF3300"/>
<path d="M68.4723 22.8586C68.4723 23.9532 69.3597 24.8405 70.4543 24.8405H104.235C105.33 24.8405 106.217 23.9532 106.217 22.8586C106.217 21.764 105.33 20.8766 104.235 20.8766H70.4543C69.3597 20.8766 68.4723 21.764 68.4723 22.8586Z" fill="url(#paint8_linear_29_141)"/>
<path d="M68.4723 36.7322C68.4723 37.8268 69.3597 38.7142 70.4543 38.7142H93.953C95.0476 38.7142 95.935 37.8268 95.935 36.7322C95.935 35.6376 95.0476 34.7503 93.953 34.7503H70.4543C69.3597 34.7503 68.4723 35.6376 68.4723 36.7322Z" fill="url(#paint9_linear_29_141)"/>
<path d="M89.0368 50.6059C89.0368 51.7005 88.1494 52.5878 87.0548 52.5878H70.4543C69.3597 52.5878 68.4723 51.7005 68.4723 50.6059C68.4723 49.5113 69.3597 48.6239 70.4543 48.6239H87.0548C88.1494 48.6239 89.0368 49.5113 89.0368 50.6059Z" fill="url(#paint10_linear_29_141)"/>
<path d="M112.595 10.108C112.595 11.8229 111.205 13.2131 109.49 13.2131H71.5774C69.8625 13.2131 68.4723 11.8229 68.4723 10.108C68.4723 8.39313 69.8625 7.00294 71.5774 7.00294H109.49C111.205 7.00294 112.595 8.39313 112.595 10.108Z" fill="url(#paint11_linear_29_141)"/>
<path fill-rule="evenodd" clip-rule="evenodd" d="M6.10352e-05 127.647H81.054C81.054 112.342 74.4564 97.3083 53.4249 97.3083C53.4249 74.9814 34.6625 65 16.0406 65H6.10352e-05V127.647ZM22.6532 86.0135C23.738 86.0135 24.6174 86.8929 24.6174 87.9777V122.136C24.6174 123.221 23.738 124.101 22.6532 124.101C21.5685 124.101 20.6891 123.221 20.6891 122.136V87.9777C20.6891 86.8929 21.5685 86.0135 22.6532 86.0135ZM10.0172 124.1C11.7167 124.1 13.0944 122.723 13.0944 121.023V82.6553C13.0944 80.9558 11.7167 79.5781 10.0172 79.5781C8.31774 79.5781 6.94005 80.9558 6.94005 82.6553V121.023C6.94005 122.723 8.31774 124.1 10.0172 124.1ZM36.4023 96.3889C37.4871 96.3889 38.3664 97.2683 38.3664 98.3531V122.136C38.3664 123.221 37.4871 124.1 36.4023 124.1C35.3175 124.1 34.4381 123.221 34.4381 122.136V98.3531C34.4381 97.2683 35.3175 96.3889 36.4023 96.3889ZM50.1513 124.1C51.2361 124.1 52.1155 123.221 52.1155 122.136V105.314C52.1155 104.229 51.2361 103.35 50.1513 103.35C49.0666 103.35 48.1872 104.229 48.1872 105.314V122.136C48.1872 123.221 49.0666 124.1 50.1513 124.1Z" fill="url(#paint12_linear_29_141)"/>
<path fill-rule="evenodd" clip-rule="evenodd" d="M76.4331 102.936C70.5615 89.5677 59.8631 78.7488 46.5105 72.6261C53.2163 77.2564 57.7725 84.1019 57.7725 94.2931C66.9207 94.2931 72.7488 97.8567 76.4331 102.936Z" fill="#DA0606"/>
<path d="M76.4331 102.936C70.5615 89.5677 59.8631 78.7488 46.5105 72.6261C53.2163 77.2564 57.7725 84.1019 57.7725 94.2931C66.9207 94.2931 72.7488 97.8567 76.4331 102.936Z" fill="url(#paint13_linear_29_141)"/>
<path d="M22.6532 124.101C23.738 124.101 24.6174 123.221 24.6174 122.136V87.9777C24.6174 86.8929 23.738 86.0135 22.6532 86.0135C21.5685 86.0135 20.6891 86.8929 20.6891 87.9777V122.136C20.6891 123.221 21.5685 124.101 22.6532 124.101Z" fill="url(#paint14_linear_29_141)"/>
<path d="M36.4023 124.1C37.4871 124.1 38.3664 123.221 38.3664 122.136V98.3531C38.3664 97.2683 37.4871 96.3889 36.4023 96.3889C35.3175 96.3889 34.4381 97.2683 34.4381 98.3531V122.136C34.4381 123.221 35.3175 124.1 36.4023 124.1Z" fill="url(#paint15_linear_29_141)"/>
<path d="M50.1513 103.35C51.2361 103.35 52.1155 104.229 52.1155 105.314V122.136C52.1155 123.221 51.2361 124.1 50.1513 124.1C49.0666 124.1 48.1872 123.221 48.1872 122.136V105.314C48.1872 104.229 49.0666 103.35 50.1513 103.35Z" fill="url(#paint16_linear_29_141)"/>
<path d="M10.0172 79.5781C11.7167 79.5781 13.0944 80.9558 13.0944 82.6553V121.023C13.0944 122.723 11.7167 124.1 10.0172 124.1C8.31774 124.1 6.94005 122.723 6.94005 121.023V82.6553C6.94005 80.9558 8.31774 79.5781 10.0172 79.5781Z" fill="url(#paint17_linear_29_141)"/>
<defs>
<linearGradient id="paint0_linear_29_141" x1="127.042" y1="151.106" x2="64.9581" y2="151.106" gradientUnits="userSpaceOnUse">
<stop stop-color="white"/>
<stop offset="1" stop-color="#FF3700"/>
</linearGradient>
<linearGradient id="paint1_linear_29_141" x1="127.042" y1="151.106" x2="64.9581" y2="151.106" gradientUnits="userSpaceOnUse">
<stop stop-color="white"/>
<stop offset="0.815" stop-color="#F73D0E"/>
</linearGradient>
<linearGradient id="paint2_linear_29_141" x1="127.042" y1="151.106" x2="64.9581" y2="151.106" gradientUnits="userSpaceOnUse">
<stop stop-color="white"/>
<stop offset="1" stop-color="#FF3300"/>
</linearGradient>
<linearGradient id="paint3_linear_29_141" x1="127.042" y1="151.106" x2="64.9581" y2="151.106" gradientUnits="userSpaceOnUse">
<stop stop-color="white"/>
<stop offset="1" stop-color="#FF3300"/>
</linearGradient>
<linearGradient id="paint4_linear_29_141" x1="151.473" y1="64.9668" x2="151.473" y2="127.613" gradientUnits="userSpaceOnUse">
<stop stop-color="white"/>
<stop offset="1" stop-color="#FF3700"/>
</linearGradient>
<linearGradient id="paint5_linear_29_141" x1="151.473" y1="64.9668" x2="151.473" y2="127.613" gradientUnits="userSpaceOnUse">
<stop stop-color="white"/>
<stop offset="0.815" stop-color="#F73D0E"/>
</linearGradient>
<linearGradient id="paint6_linear_29_141" x1="151.473" y1="64.9668" x2="151.473" y2="127.613" gradientUnits="userSpaceOnUse">
<stop stop-color="white"/>
<stop offset="1" stop-color="#FF3300"/>
</linearGradient>
<linearGradient id="paint7_linear_29_141" x1="151.473" y1="64.9668" x2="151.473" y2="127.613" gradientUnits="userSpaceOnUse">
<stop stop-color="white"/>
<stop offset="1" stop-color="#FF3300"/>
</linearGradient>
<linearGradient id="paint8_linear_29_141" x1="64.9582" y1="40.8943" x2="127.042" y2="40.8943" gradientUnits="userSpaceOnUse">
<stop stop-color="white"/>
<stop offset="1" stop-color="#FF3700"/>
</linearGradient>
<linearGradient id="paint9_linear_29_141" x1="64.9582" y1="40.8943" x2="127.042" y2="40.8943" gradientUnits="userSpaceOnUse">
<stop stop-color="white"/>
<stop offset="0.815" stop-color="#F73D0E"/>
</linearGradient>
<linearGradient id="paint10_linear_29_141" x1="64.9582" y1="40.8943" x2="127.042" y2="40.8943" gradientUnits="userSpaceOnUse">
<stop stop-color="white"/>
<stop offset="1" stop-color="#FF3300"/>
</linearGradient>
<linearGradient id="paint11_linear_29_141" x1="64.9582" y1="40.8943" x2="127.042" y2="40.8943" gradientUnits="userSpaceOnUse">
<stop stop-color="white"/>
<stop offset="1" stop-color="#FF3300"/>
</linearGradient>
<linearGradient id="paint12_linear_29_141" x1="81.054" y1="96.3233" x2="6.10352e-05" y2="96.3233" gradientUnits="userSpaceOnUse">
<stop stop-color="#FF3300"/>
<stop offset="1" stop-color="#FF3300"/>
</linearGradient>
<linearGradient id="paint13_linear_29_141" x1="81.054" y1="96.3233" x2="6.10352e-05" y2="96.3233" gradientUnits="userSpaceOnUse">
<stop stop-color="#FF3300"/>
<stop offset="1" stop-color="#FF3300"/>
</linearGradient>
<linearGradient id="paint14_linear_29_141" x1="40.527" y1="127.647" x2="40.527" y2="65" gradientUnits="userSpaceOnUse">
<stop stop-color="white"/>
<stop offset="1" stop-color="#FF3700"/>
</linearGradient>
<linearGradient id="paint15_linear_29_141" x1="40.527" y1="127.647" x2="40.527" y2="65" gradientUnits="userSpaceOnUse">
<stop stop-color="white"/>
<stop offset="0.815" stop-color="#F73D0E"/>
</linearGradient>
<linearGradient id="paint16_linear_29_141" x1="40.527" y1="127.647" x2="40.527" y2="65" gradientUnits="userSpaceOnUse">
<stop stop-color="white"/>
<stop offset="1" stop-color="#FF3300"/>
</linearGradient>
<linearGradient id="paint17_linear_29_141" x1="40.527" y1="127.647" x2="40.527" y2="65" gradientUnits="userSpaceOnUse">
<stop stop-color="white"/>
<stop offset="1" stop-color="#FF3300"/>
</linearGradient>
</defs>
</svg>
